<?xml version="1.0" encoding="UTF-8" standalone="no"?>
<svg width="620px" height="450px" viewBox="0 0 620 450" version="1.1" xmlns="http://www.w3.org/2000/svg" xmlns:xlink="http://www.w3.org/1999/xlink" xmlns:sketch="http://www.bohemiancoding.com/sketch/ns">
    <!-- Generator: Sketch 3.3.3 (12072) - http://www.bohemiancoding.com/sketch -->
    <title>illustration</title>
    <desc>Created with Sketch.</desc>
    <defs>
        <path id="path-1" d="M162.267824,139.544949 L162.267824,0 L0,0 L0,139.544949 L50.7624687,139.544949 L100.320404,139.544949 L162.267824,139.544949 Z"></path>
        <path id="path-3" d="M5.73031875,58.1558202 L0,58.1558202 L0,27.7499703 L123.968586,1.13686838e-13 L123.968586,72.2822757 L5.73031875,72.2822757 L5.73031875,58.1558202 Z"></path>
        <path id="path-5" d="M0,0 L349.732514,0 L355.553384,99.2293057 L0,92.3606856 L0,0 Z"></path>
        <rect id="path-7" x="0" y="0" width="28.9394417" height="26.8515269"></rect>
    </defs>
    <g id="Page-1" stroke="none" stroke-width="1" fill="none" fill-rule="evenodd" sketch:type="MSPage">
        <g id="illustration" sketch:type="MSArtboardGroup">
            <g id="icon+colors" sketch:type="MSLayerGroup" transform="translate(67.000000, 0.000000)">
                <g id="desktop" transform="translate(113.857916, 212.285012)" sketch:type="MSShapeGroup">
                    <rect id="Rectangle-4" stroke="#657682" stroke-width="3" fill="#E1E4E6" x="90.7087213" y="145.568472" width="54.4252328" height="24.0940919"></rect>
                    <rect id="Rectangle-4-Copy" stroke="#657682" stroke-width="3" fill="#E1E4E6" x="77.6063505" y="165.646882" width="80.6299745" height="13.0509664"></rect>
                    <rect id="Rectangle-2" stroke="#657682" stroke-width="3" fill="#E1E4E6" x="0" y="0" width="235.842675" height="149.584154" rx="10"></rect>
                    <rect id="Rectangle-2-Copy" stroke="#657682" stroke-width="3" fill="#FFFFFF" x="10.0787468" y="10.039205" width="215.685182" height="129.505744"></rect>
                    <g id="Group" transform="translate(41.322862, 25.098012)">
                        <rect id="Rectangle-22" fill="#99CAF1" x="0" y="44.1725018" width="84.6614732" height="6.02352297" rx="5"></rect>
                        <rect id="Rectangle-22-Copy" fill="#99CAF1" x="0" y="55.2156272" width="84.6614732" height="6.02352297" rx="5"></rect>
                        <rect id="Rectangle-22-Copy-2" fill="#99CAF1" x="0" y="65.2548322" width="84.6614732" height="6.02352297" rx="5"></rect>
                        <rect id="Rectangle-22-Copy-3" fill="#99CAF1" x="0" y="76.2979577" width="46.3622354" height="6.02352297" rx="5"></rect>
                        <rect id="Rectangle-21" stroke="#657682" stroke-width="3" fill="#E1E4E6" x="93.7323454" y="0" width="75.5906011" height="26.1019329" rx="5"></rect>
                    </g>
                </g>
                <g id="ipad" transform="translate(302.330482, 273.524163)" sketch:type="MSShapeGroup">
                    <rect id="Rectangle-8" stroke="#657682" stroke-width="3" fill="#E1E4E6" x="0" y="0" width="156.220576" height="110.431254" rx="10"></rect>
                    <rect id="Rectangle-9" stroke="#657682" stroke-width="3" fill="#FFFFFF" x="13.1023709" y="8.03136396" width="128.000085" height="94.3685266"></rect>
                    <ellipse id="Oval-2" stroke="#7A8993" stroke-width="2" fill="#FFFFFF" cx="147.149704" cy="55.2156272" rx="3.02362404" ry="3.01176149"></ellipse>
                    <ellipse id="Oval-2-Copy" fill="#7A8993" cx="7.08704555" cy="55.2156272" rx="2.01574936" ry="2.00784099"></ellipse>
                    <rect id="Rectangle-21-Copy" stroke="#657682" stroke-width="3" fill="#E1E4E6" x="28.2204911" y="61.2391502" width="75.5906011" height="26.1019329" rx="5"></rect>
                    <rect id="Rectangle-22-Copy-4" fill="#99CAF1" x="28.2204911" y="23.0901714" width="14.1102455" height="6.02352297" rx="5"></rect>
                    <rect id="Rectangle-22-Copy-5" fill="#99CAF1" x="81.6378492" y="23.0901714" width="44.346486" height="6.02352297" rx="5"></rect>
                    <rect id="Rectangle-22-Copy-6" fill="#99CAF1" x="28.2204911" y="34.1332968" width="84.6614732" height="6.02352297" rx="5"></rect>
                    <rect id="Rectangle-22-Copy-7" fill="#99CAF1" x="28.2204911" y="44.1725018" width="84.6614732" height="6.02352297" rx="5"></rect>
                </g>
                <g id="phone" transform="translate(86.645300, 282.559447)" sketch:type="MSShapeGroup">
                    <rect id="Rectangle-6" stroke="#657682" stroke-width="3" fill="#E1E4E6" x="0" y="0" width="58.4567315" height="101.39597" rx="10"></rect>
                    <rect id="Rectangle-7" stroke="#657682" stroke-width="3" fill="#FFFFFF" x="7.05512277" y="14.0548869" width="44.346486" height="72.2822757"></rect>
                    <path d="M19.6535563,8.03136396 L38.8031752,8.03136396" id="Line" stroke="#7A8993" stroke-width="2" stroke-linecap="square"></path>
                    <ellipse id="Oval-1" stroke="#7A8993" stroke-width="2" fill="#FFFFFF" cx="29.2283658" cy="92.3606856" rx="3.02362404" ry="3.01176149"></ellipse>
                    <rect id="Rectangle-21-Copy-2" stroke="#657682" stroke-width="3" fill="#E1E4E6" x="17.1338696" y="42.1646608" width="24.1889924" height="30.1176149" rx="5"></rect>
                </g>
                <g id="clouds" transform="translate(0.975952, 262.481037)">
                    <g id="Mask-+-Path" transform="translate(0.000000, 0.000000)">
                        <mask id="mask-2" sketch:name="Mask Copy" fill="white">
                            <use xlink:href="#path-1"></use>
                        </mask>
                        <use id="Mask-Copy" sketch:type="MSShapeGroup" xlink:href="#path-1"></use>
                        <path d="M-4.54527859,50.8293574 C-4.54527859,50.8293574 35.8327008,55.154843 43.3838869,79.2959937 C85.1614736,69.1156124 93.3750617,97.0312688 100.888846,110.760666 C138.075879,110.805764 145.617222,142.644946 145.617222,142.644946 L-4.54527859,142.644946 L-4.54527859,50.8293574 Z" id="Path" stroke="#1787E0" stroke-width="3" fill="#FFFFFF" sketch:type="MSShapeGroup" mask="url(#mask-2)"></path>
                    </g>
                    <g id="Path-15-+-Rectangle-20" transform="translate(360.819136, 66.258753)">
                        <mask id="mask-4" sketch:name="Mask" fill="white">
                            <use xlink:href="#path-3"></use>
                        </mask>
                        <use id="Mask" sketch:type="MSShapeGroup" xlink:href="#path-3"></use>
                        <path d="M2.87204914,57.6234678 C2.87204914,57.6234678 15.0049312,35.7646677 39.6771916,35.5372169 C58.1752353,11.4470466 89.4547835,23.750955 89.4547835,23.750955 C89.4547835,23.750955 107.029937,8.98822286 130.161947,8.98822286 C130.882315,43.8097543 130.161947,106.950651 130.161947,106.950651 L2.86655176,106.950654 L2.87204914,57.6234678 Z" id="Path-15" stroke="#1787E0" stroke-width="3" fill="#FFFFFF" sketch:type="MSShapeGroup" mask="url(#mask-4)"></path>
                    </g>
                    <g id="Path-14-+-Rectangle-19" transform="translate(106.834716, 87.341083)">
                        <mask id="mask-6" sketch:name="Mask" fill="white">
                            <use xlink:href="#path-5"></use>
                        </mask>
                        <use id="Mask" sketch:type="MSShapeGroup" xlink:href="#path-5"></use>
                        <path d="M-0.0757874516,95.6371525 C-0.0757874516,95.6371525 -1.51279627,68.4754168 28.3484439,69.8567881 C29.8976575,43.6234828 57.5768097,42.4528958 57.5768097,42.4528958 C57.5768097,42.4528958 71.1831179,20.5901741 99.6280186,29.198008 C117.844566,-2.55686001 164.179235,8.02253971 167.034555,39.5666237 C185.811143,29.1980079 201.928279,36.8989801 201.928279,36.8989801 C201.928279,36.8989801 236.895822,-2.57940907 263.34269,45.3479907 C302.370275,36.8989801 310.42343,69.856788 310.42343,69.856788 C310.42343,69.856788 330.674427,67.5273787 335.42443,85.3842262 C350.971685,82.5018764 353.69708,102.766561 353.69708,102.766561 L-0.0757874516,95.6371525 Z" id="Path-14" stroke="#1787E0" stroke-width="3" fill="#FFFFFF" sketch:type="MSShapeGroup" mask="url(#mask-6)"></path>
                    </g>
                    <g id="Path-13-+-Rectangle-32" transform="translate(57.657151, 50.102326)">
                        <mask id="mask-8" sketch:name="Mask" fill="white">
                            <use xlink:href="#path-7"></use>
                        </mask>
                        <use id="Mask" sketch:type="MSShapeGroup" xlink:href="#path-7"></use>
                        <path d="M2.74985114,24.3309546 C2.74985114,24.3309546 3.1118262,17.6914974 10.3048756,17.9730004 C11.6939319,7.75328583 21.8470488,12.1485883 21.8470488,12.1485883 C21.8470488,12.1485883 22.720435,5.09867429 30.5445215,4.53952456 C30.5445217,20.8936901 30.5445215,44.1223851 30.5445215,44.1223851 L2.74985114,44.1223851 L2.74985114,24.3309546 Z" id="Path-13" stroke="#1787E0" stroke-width="2" sketch:type="MSShapeGroup" mask="url(#mask-8)"></path>
                    </g>
                </g>
                <g id="Research" transform="translate(31.225029, 152.995754) rotate(-19.000000) translate(-31.225029, -152.995754) translate(6.826231, 128.158092)" stroke="#E15C52" stroke-width="2" sketch:type="MSShapeGroup">
                    <rect id="Rectangle-20" fill="#F7CBC1" x="0.975951904" y="44.8051948" width="42.9418838" height="4.87012987"></rect>
                    <path d="M27.3266533,44.8051948 C39.1847271,44.8051948 48.7975952,35.2112966 48.7975952,23.3766234 C48.7975952,11.5419502 39.1847271,1.94805195 27.3266533,1.94805195" id="Oval-74"></path>
                    <rect id="Rectangle-21" fill="#F7CBC1" transform="translate(20.494990, 14.610390) rotate(30.000000) translate(-20.494990, -14.610390) " x="15.6152305" y="0.974025974" width="9.75951904" height="27.2727273"></rect>
                    <path d="M7.80761523,28.2467532 L15.6152305,32.1428571" id="Line-30"></path>
                    <rect id="Rectangle-22" fill="#F7CBC1" x="4.87975952" y="40.9090909" width="20.49499" height="3.8961039"></rect>
                    <ellipse id="Oval-75" fill="#FFFFFF" cx="41.9659319" cy="22.4025974" rx="2.92785571" ry="2.92207792"></ellipse>
                </g>
                <g id="Ideation" transform="translate(127.749910, 53.553919)" stroke="#57C78D" stroke-width="2" sketch:type="MSShapeGroup">
                    <path d="M33.9579035,29.2073997 C34.3068879,28.0944571 34.2808045,27.6137959 34.2808045,26.7918688 C34.2808045,18.3428166 27.0207363,11.4935065 18.0649883,11.4935065 C9.10924026,11.4935065 1.84917203,18.3428166 1.84917203,26.7918688 C1.84917203,27.6137959 2.02612182,28.4205838 2.1584101,29.2073997 C2.1584101,29.2073997 3.40695621,33.5918919 4.46090503,35.1209208 L10.3838122,48.5316469 L25.7461644,48.5316469 L31.6690715,35.1209208 C32.7230203,33.5918919 33.6089192,30.3203423 33.9579035,29.2073997 Z" id="Oval-593" stroke-linecap="round" stroke-linejoin="round" fill="#E0F5E9"></path>
                    <path d="M10.3838122,50.9471778 L25.7698529,50.9471778" id="Line" stroke-linecap="round" stroke-linejoin="round"></path>
                    <path d="M10.3838122,53.3627087 L25.7698529,53.3627087" id="Line" stroke-linecap="round" stroke-linejoin="round"></path>
                    <path d="M10.3838122,55.7782396 L25.7698529,55.7782396" id="Line" stroke-linecap="round" stroke-linejoin="round"></path>
                    <path d="M30.8669485,26.7918688 C30.8669485,20.1215645 25.1353157,14.7142144 18.0649883,14.7142144" id="Oval-593" stroke-linecap="round" stroke-linejoin="round"></path>
                    <path d="M4.62293007,11.4935065 L0.810764256,7.8482033" id="Line" stroke-linecap="round" stroke-linejoin="round"></path>
                    <path d="M29.5867525,11.4935065 L33.3989183,7.8482033" id="Line-Copy-7" stroke-linecap="round" stroke-linejoin="round"></path>
                    <path d="M17.5671343,6.18881119 L17.5671343,0.810944208" id="Line" stroke-linecap="round" stroke-linejoin="round"></path>
                    <g id="Shape-+-Shape-+-Shape" transform="translate(10.383812, 30.986157)">
                        <path d="M15.7185838,0.80512013 C11.0898391,0.635207792 7.33847515,4.26102597 7.33847515,8.71131169 C7.33847515,8.81532792 7.34237896,8.91829058 7.34638036,9.02144481 C7.45139279,9.02527597 7.55640521,9.02901136 7.66239359,9.02901136 C12.1962758,9.02910714 15.8920104,5.34831169 15.7185838,0.80512013 L15.7185838,0.80512013 Z" id="Shape" fill="#FFFFFF"></path>
                        <path d="M0.554926253,2.35645617 C0.410875752,6.02863149 3.40304669,9.02767045 7.0899002,9.02767045 C7.17597916,9.02767045 7.26117976,9.02460552 7.34628277,9.02144481 C7.349601,8.93782955 7.35272405,8.85411851 7.35272405,8.76983279 C7.35272405,5.14238636 4.28472164,2.21374513 0.554926253,2.35645617 L0.554926253,2.35645617 Z" id="Shape" fill="#FFFFFF"></path>
                        <path d="M6.83166333,9.02144481 L6.83166333,17.750763" id="Shape"></path>
                    </g>
                </g>
                <g id="Design" transform="translate(244.640480, 151.966445) rotate(26.000000) translate(-244.640480, -151.966445) translate(221.217635, 128.589822)" stroke="#FF9F57" stroke-width="2" sketch:type="MSShapeGroup">
                    <g id="Group" transform="translate(0.000000, 0.974026)" fill="#FFEDBF">
                        <path d="M21.2491966,9.62376978 L11.9496246,0.342151989 L0.299825641,11.9689614 L9.59939769,21.2499831" id="Shape"></path>
                        <path d="M24.5034795,36.1246533 L34.1034744,45.7055051 L45.7530743,34.0792918 L36.1532784,24.4980426" id="Shape"></path>
                    </g>
                    <path d="M4.07332843,16.5975759 L10.4343703,10.2488882" id="Shape"></path>
                    <path d="M7.56173804,20.0791016 L10.1062742,17.5397854" id="Shape"></path>
                    <path d="M26.8869539,39.3661813 L29.431291,36.8266665" id="Shape"></path>
                    <path d="M30.5230864,42.9951383 L36.8841283,36.6464506" id="Shape"></path>
                    <path d="M5.71560048,31.2522913 C5.58838362,31.3792571 0.545101331,44.1900873 0.545101331,44.1900873 C0.113081649,45.2310479 1.27535395,46.5070642 2.40457775,46.0460929 C2.40457775,46.0460929 15.3076319,41.0777361 15.435247,40.9505716" id="Shape"></path>
                    <path d="M2.50571415,39.2243134 L7.40565351,44.1145833" id="Shape"></path>
                    <path d="M43.4587909,7.44312263 L38.9385113,2.93176322 C37.5777488,1.57368608 35.3716612,1.57368608 34.0108988,2.93176322 L5.67598209,31.2107642 L15.4756617,40.9911052 L43.4587909,13.0629989 C45.0138627,11.5111945 45.0138627,8.99512564 43.4587909,7.44312263 L43.4587909,7.44312263 Z" id="Shape" fill="#FFEDBF"></path>
                    <path d="M11.2757137,36.799644 L34.3748305,13.7461107" id="Shape"></path>
                </g>
                <g id="Visual" transform="translate(337.151932, 36.609235) rotate(34.000000) translate(-337.151932, -36.609235) translate(311.289206, 10.310534)" stroke="#1787E0" sketch:type="MSShapeGroup">
                    <g id="Group" transform="translate(0.000000, 0.974026)">
                        <g transform="translate(0.975952, 6.493506)" id="Shape" stroke-width="2" fill="#DBECFA">
                            <path d="M23.7433646,0.205600649 C45.6133081,0.205600649 45.7764547,17.9603896 45.7764547,22.6836851 C45.7764547,28.8737825 41.6964065,44.0219968 21.1316359,44.0219968 C18.3208131,44.0219968 22.7727804,40.725487 22.7727804,37.0991883 C22.7727804,34.8734578 21.5284417,33.192776 19.6785249,33.192776 C16.0879165,33.192776 16.8469631,34.8431006 10.9723019,34.8431006 C6.69454208,34.8431006 0.514326653,31.9136364 0.514326653,20.5655844 C0.514326653,9.21753247 11.6663664,0.205600649 23.7433646,0.205600649 L23.7433646,0.205600649 Z"></path>
                            <path d="M9.74870224,10.8913149 C10.9280588,9.66461039 12.2995965,8.58693182 13.7928029,7.69967532"></path>
                            <path d="M5.641002,18.9373377 C5.91613911,16.9903409 6.63785554,15.1564935 7.69139562,13.4978896"></path>
                        </g>
                        <g transform="translate(21.714930, 0.974026)">
                            <rect id="Rectangle-path" stroke-width="2.00008509" fill="#DBECFA" transform="translate(17.530108, 11.884666) rotate(222.296813) translate(-17.530108, -11.884666) " x="15.359336" y="-2.03536614" width="4.34154408" height="27.8400643"></rect>
                            <path d="M7.64991767,22.2835227 C8.61773664,23.0755682 10.5229574,24.6362013 7.92505478,27.7961039 C5.32715214,30.9560065 0.616638945,31.3064935 0.00138259853,30.801461 C0.00138259853,30.801461 1.18765214,27.8650974 1.04524449,25.0805195 C0.952610387,23.2935877 5.09902338,20.1957792 7.64991767,22.2835227 L7.64991767,22.2835227 Z" id="Shape" stroke-width="2" fill="#FFFFFF"></path>
                        </g>
                    </g>
                </g>
                <g id="Send" transform="translate(381.597194, 121.753247)" stroke="#A293F7" stroke-width="2" fill="#FAF9FF" stroke-linecap="round" sketch:type="MSShapeGroup" stroke-linejoin="round">
                    <path d="M22.0156449,22.4520256 L18.8759313,36.7963753 L27.6671294,31.8070362" id="Path-174"></path>
                    <path d="M21.3877022,22.4520256 L34.5744993,41.7857143 L56.5524943,0" id="Path-173"></path>
                    <path d="M0.037649834,15.5916844 L56.5524943,0 L21.3877022,22.4520256 L0.037649834,15.5916844 Z" id="Path-172"></path>
                </g>
                <ellipse id="Oval-19" stroke="#657682" stroke-width="2" opacity="0.15" fill="#E1E4E6" sketch:type="MSShapeGroup" cx="67.3406814" cy="262.012987" rx="6.83166333" ry="6.81818182"></ellipse>
                <ellipse id="Oval-19-Copy" stroke="#657682" stroke-width="2" opacity="0.15" fill="#E1E4E6" sketch:type="MSShapeGroup" cx="113.210421" cy="161.688312" rx="3.90380762" ry="3.8961039"></ellipse>
                <ellipse id="Oval-19-Copy-7" stroke="#657682" stroke-width="2" opacity="0.15" fill="#E1E4E6" sketch:type="MSShapeGroup" cx="6.85571142" cy="200.751273" rx="2.95190381" ry="2.94607856"></ellipse>
                <ellipse id="Oval-19-Copy-2" stroke="#657682" stroke-width="2" opacity="0.15" fill="#E1E4E6" sketch:type="MSShapeGroup" cx="287.905812" cy="121.753247" rx="2.92785571" ry="2.92207792"></ellipse>
                <ellipse id="Oval-19-Copy-3" stroke="#657682" stroke-width="2" opacity="0.15" fill="#E1E4E6" sketch:type="MSShapeGroup" cx="249.843687" cy="54.5454545" rx="3.90380762" ry="3.8961039"></ellipse>
                <ellipse id="Oval-19-Copy-4" stroke="#657682" stroke-width="2" opacity="0.15" fill="#E1E4E6" sketch:type="MSShapeGroup" cx="414.291583" cy="248.887637" rx="3.43987976" ry="3.43309155"></ellipse>
                <ellipse id="Oval-19-Copy-5" stroke="#657682" stroke-width="2" opacity="0.15" fill="#E1E4E6" sketch:type="MSShapeGroup" cx="437.226453" cy="202.597403" rx="5.85571142" ry="5.84415584"></ellipse>
                <ellipse id="Oval-19-Copy-6" stroke="#657682" stroke-width="2" opacity="0.15" fill="#E1E4E6" sketch:type="MSShapeGroup" cx="394.772545" cy="78.4090909" rx="5.36773547" ry="5.35714286"></ellipse>
            </g>
        </g>
    </g>
</svg>